<svg xmlns="http://www.w3.org/2000/svg" viewBox="0 0 300 200">
  <rect width="300" height="200" style="stroke: rgb(0, 0, 0); stroke-width: 0px; fill: rgb(217, 217, 214);"></rect>
  <rect y="51" width="74" height="26" style="paint-order: fill; stroke-linejoin: round; stroke-linecap: round; stroke-width: 1.5.5px; stroke: rgb(38, 38, 42); fill: rgb(38, 38, 42);" x="182"></rect>
  <g transform="matrix(0.942808, 0, 0, 0.942809, 101.584328, -30.280478)">
    <rect y="46.112" width="20" height="4" style="paint-order: fill; stroke-linejoin: round; stroke-linecap: round; stroke: rgb(38, 38, 42); fill: rgb(217, 217, 214); stroke-width: 0px; transform-box: fill-box; transform-origin: 50% 50%;" x="127.444" transform="matrix(0.707107, 0.707107, -0.707107, 0.707107, 12.556001, 51.888001)"></rect>
    <rect y="46.112" width="20" height="4" style="paint-order: fill; stroke-linejoin: round; stroke-linecap: round; stroke: rgb(38, 38, 42); fill: rgb(217, 217, 214); stroke-width: 0px; transform-origin: 137.444px 48.112px;" x="127.444" transform="matrix(0.707107, -0.707107, 0.707107, 0.707107, 12.555999, 51.887999)"></rect>
  </g>
  <rect y="87" width="134" height="26" style="paint-order: fill; stroke-linejoin: round; stroke-linecap: round; stroke-width: 1.5.5px; stroke: rgb(38, 38, 42); fill: rgb(38, 38, 42);" x="146"></rect>
  <g transform="matrix(0.942808, 0, 0, 0.942809, 125.583824, 5.718786)">
    <rect y="46.112" width="20" height="4" style="paint-order: fill; stroke-linejoin: round; stroke-linecap: round; stroke: rgb(38, 38, 42); fill: rgb(217, 217, 214); stroke-width: 0px; transform-box: fill-box; transform-origin: 50% 50%;" x="127.444" transform="matrix(0.707107, 0.707107, -0.707107, 0.707107, 12.556001, 51.888001)"></rect>
    <rect y="46.112" width="20" height="4" style="paint-order: fill; stroke-linejoin: round; stroke-linecap: round; stroke: rgb(38, 38, 42); fill: rgb(217, 217, 214); stroke-width: 0px; transform-origin: 137.444px 48.112px;" x="127.444" transform="matrix(0.707107, -0.707107, 0.707107, 0.707107, 12.555999, 51.887999)"></rect>
  </g>
  <rect y="51" width="152" height="26" style="paint-order: fill; stroke-linejoin: round; stroke-linecap: round; stroke-width: 1.5.5px; stroke: rgb(38, 38, 42); fill: rgb(38, 38, 42);" x="20"></rect>
  <g transform="matrix(0.942808, 0, 0, 0.942809, 17.584295, -30.281002)">
    <rect y="46.112" width="20" height="4" style="paint-order: fill; stroke-linejoin: round; stroke-linecap: round; stroke: rgb(38, 38, 42); fill: rgb(217, 217, 214); stroke-width: 0px; transform-box: fill-box; transform-origin: 50% 50%;" x="127.444" transform="matrix(0.707107, 0.707107, -0.707107, 0.707107, 12.556001, 51.888001)"></rect>
    <rect y="46.112" width="20" height="4" style="paint-order: fill; stroke-linejoin: round; stroke-linecap: round; stroke: rgb(38, 38, 42); fill: rgb(217, 217, 214); stroke-width: 0px; transform-origin: 137.444px 48.112px;" x="127.444" transform="matrix(0.707107, -0.707107, 0.707107, 0.707107, 12.555999, 51.887999)"></rect>
  </g>
  <rect y="87" width="116" height="26" style="paint-order: fill; stroke-linejoin: round; stroke-linecap: round; stroke-width: 1.5.5px; stroke: rgb(38, 38, 42); fill: rgb(38, 38, 42);" x="20"></rect>
  <g transform="matrix(0.942808, 0, 0, 0.942809, -17.415705, 5.719446)">
    <rect y="46.112" width="20" height="4" style="paint-order: fill; stroke-linejoin: round; stroke-linecap: round; stroke: rgb(38, 38, 42); fill: rgb(217, 217, 214); stroke-width: 0px; transform-box: fill-box; transform-origin: 50% 50%;" x="127.444" transform="matrix(0.707107, 0.707107, -0.707107, 0.707107, 12.556001, 51.888001)"></rect>
    <rect y="46.112" width="20" height="4" style="paint-order: fill; stroke-linejoin: round; stroke-linecap: round; stroke: rgb(38, 38, 42); fill: rgb(217, 217, 214); stroke-width: 0px; transform-origin: 137.444px 48.112px;" x="127.444" transform="matrix(0.707107, -0.707107, 0.707107, 0.707107, 12.555999, 51.887999)"></rect>
  </g>
  <rect y="123" width="136" height="26" style="paint-order: fill; stroke-linejoin: round; stroke-linecap: round; stroke-width: 1.5.5px; stroke: rgb(38, 38, 42); fill: rgb(38, 38, 42);" x="20"></rect>
  <g transform="matrix(0.942808, 0, 0, 0.942809, 1.575066, 41.71981)">
    <rect y="46.112" width="20" height="4" style="paint-order: fill; stroke-linejoin: round; stroke-linecap: round; stroke: rgb(38, 38, 42); fill: rgb(217, 217, 214); stroke-width: 0px; transform-box: fill-box; transform-origin: 50% 50%;" x="127.444" transform="matrix(0.707107, 0.707107, -0.707107, 0.707107, 12.556001, 51.888001)"></rect>
    <rect y="46.112" width="20" height="4" style="paint-order: fill; stroke-linejoin: round; stroke-linecap: round; stroke: rgb(38, 38, 42); fill: rgb(217, 217, 214); stroke-width: 0px; transform-origin: 137.444px 48.112px;" x="127.444" transform="matrix(0.707107, -0.707107, 0.707107, 0.707107, 12.555999, 51.887999)"></rect>
  </g>
</svg>